<svg xmlns="http://www.w3.org/2000/svg" width="15.03" height="15.97" viewBox="0 0 15.03 15.97">
  <metadata><?xpacket begin="﻿" id="W5M0MpCehiHzreSzNTczkc9d"?>
<x:xmpmeta xmlns:x="adobe:ns:meta/" x:xmptk="Adobe XMP Core 5.6-c138 79.159824, 2016/09/14-01:09:01        ">
   <rdf:RDF xmlns:rdf="http://www.w3.org/1999/02/22-rdf-syntax-ns#">
      <rdf:Description rdf:about=""/>
   </rdf:RDF>
</x:xmpmeta>
                                                                                                    
                                                                                                    
                                                                                                    
                                                                                                    
                                                                                                    
                                                                                                    
                                                                                                    
                                                                                                    
                                                                                                    
                                                                                                    
                                                                                                    
                                                                                                    
                                                                                                    
                                                                                                    
                                                                                                    
                                                                                                    
                                                                                                    
                                                                                                    
                                                                                                    
                                                                                                    
                           
<?xpacket end="w"?></metadata>
<defs>
    <style>
      .cls-1 {
        fill: #9cbf29;
        fill-rule: evenodd;
      }
    </style>
  </defs>
  <path id="email_icon" data-name="email icon" class="cls-1" d="M1031.16,7379.13c-4.66.85-7.51,6.94-5.61,11.26,2.08,4.75,7.22,5.74,11.41,3.35a0.466,0.466,0,0,0-.46-0.81c-3.19,1.83-7.02,1.66-9.35-1.5-2.29-3.09-1.35-7.11,1.19-9.66,3.1-3.12,7.95-1.96,9.99,1.78a5.481,5.481,0,0,1-.44,6.05c-0.88.95-2,.03-2.45-0.73a4.738,4.738,0,0,1-.44-1.65,10.9,10.9,0,0,0-.11-3.15c-0.09-.53-0.9-0.39-0.9.13,0,0.35-.01.71-0.01,1.07-1.11-2.93-6.3-1.05-5.6,2.18a3.513,3.513,0,0,0,4.44,2.73,2.655,2.655,0,0,0,1.67-1.3,3.69,3.69,0,0,0,1.43,1.74c2.08,1.33,3.59-1.41,3.92-3.11C1040.84,7382.4,1035.74,7378.3,1031.16,7379.13Zm2.25,9.6c-1.43,1.74-3.98.13-4.17-1.74-0.23-2.32,3.52-3.23,4.39-1.1a0.261,0.261,0,0,0,.36.15c0.02,0.42.04,0.84,0.09,1.25A3.329,3.329,0,0,1,1033.41,7388.73Z" transform="translate(-1024.94 -7379.03)"/>
</svg>
