<svg xmlns="http://www.w3.org/2000/svg" width="13" height="20" viewBox="0 0 13 20">
  <metadata><?xpacket begin="﻿" id="W5M0MpCehiHzreSzNTczkc9d"?>
<x:xmpmeta xmlns:x="adobe:ns:meta/" x:xmptk="Adobe XMP Core 5.6-c138 79.159824, 2016/09/14-01:09:01        ">
   <rdf:RDF xmlns:rdf="http://www.w3.org/1999/02/22-rdf-syntax-ns#">
      <rdf:Description rdf:about=""/>
   </rdf:RDF>
</x:xmpmeta>
                                                                                                    
                                                                                                    
                                                                                                    
                                                                                                    
                                                                                                    
                                                                                                    
                                                                                                    
                                                                                                    
                                                                                                    
                                                                                                    
                                                                                                    
                                                                                                    
                                                                                                    
                                                                                                    
                                                                                                    
                                                                                                    
                                                                                                    
                                                                                                    
                                                                                                    
                                                                                                    
                           
<?xpacket end="w"?></metadata>
<defs>
    <style>
      .cls-1 {
        fill: #9cbf29;
        fill-rule: evenodd;
      }
    </style>
  </defs>
  <path id="map_icon" data-name="map icon" class="cls-1" d="M1032.62,7313q-0.42,0-.84.03h-0.34a0.583,0.583,0,0,0-.26.06,5.139,5.139,0,0,0-4.72,3.16,8.948,8.948,0,0,0-.06,5.44,26.323,26.323,0,0,0,5.11,9.89l-0.95-.03c-0.52-.01-1.03-0.03-1.55-0.04h-0.02a0.675,0.675,0,0,0-.72.66,0.7,0.7,0,0,0,.73.7c0.52,0.02,1.03.03,1.55,0.05,1.47,0.04,3,.08,4.5.08,0.43,0,.86,0,1.29-0.01a0.7,0.7,0,0,0,.73-0.7,0.682,0.682,0,0,0-.74-0.67h0c-0.42.01-.85,0.01-1.28,0.01H1034a20.8,20.8,0,0,0,4.93-11.16,7.612,7.612,0,0,0-1.2-5.41C1036.72,7313.69,1035,7313,1032.62,7313Zm4.92,7.91a19.267,19.267,0,0,1-4.78,10.05,27.478,27.478,0,0,1-4.6-8.1,10.517,10.517,0,0,1-.75-5.07,3.852,3.852,0,0,1,3.91-3.31,0.76,0.76,0,0,1,.14.01,0.76,0.76,0,0,0,.26-0.06h0.23a0.688,0.688,0,0,0,.13-0.02c0.18-.01.36-0.01,0.54-0.01a4.956,4.956,0,0,1,4.14,1.61C1037.6,7317.05,1037.86,7318.69,1037.54,7320.91Zm-5.03-5.7h-0.11a3.259,3.259,0,0,0-3.53,3.21,4,4,0,0,0,3.72,4.09,2.09,2.09,0,0,0,.25.01h0a4.071,4.071,0,0,0,3.92-3.35,3.058,3.058,0,0,0-.68-2.43A4.759,4.759,0,0,0,1032.51,7315.21Zm2.83,3.83a2.673,2.673,0,0,1-2.73,1.97,2.325,2.325,0,0,1-2.23-2.43,1.751,1.751,0,0,1,1.89-1.87h0.22a3.369,3.369,0,0,1,2.49.97A1.691,1.691,0,0,1,1035.34,7319.04Z" transform="translate(-1026 -7313)"/>
</svg>
