<?xml version="1.0" encoding="utf-8"?>
<!-- Generator: Adobe Illustrator 19.2.1, SVG Export Plug-In . SVG Version: 6.00 Build 0)  -->
<svg version="1.1" xmlns="http://www.w3.org/2000/svg" xmlns:xlink="http://www.w3.org/1999/xlink" x="0px" y="0px"
	 viewBox="0 0 4500 3000" style="enable-background:new 0 0 4500 3000;" xml:space="preserve">
<style type="text/css">
	.st0{fill:#F8F7F2;}
	.st1{fill:#E2E8CA;}
	.st2{fill:#FFFFFF;}
	.st3{fill:none;}
	.st4{fill:none;stroke:#000000;stroke-width:4;stroke-miterlimit:10;}
	.st5{fill:none;stroke:#29ABE2;stroke-width:10;stroke-miterlimit:10;}
	.st6{fill:#E2E8CA;stroke:#000000;stroke-width:4;stroke-miterlimit:10;}
	.st7{fill:none;stroke:#D1D921;stroke-width:40;stroke-miterlimit:10;stroke-dasharray:10,10,0,0,0;}
	.st8{fill:none;stroke:#D1D921;stroke-width:20;stroke-miterlimit:10;stroke-dasharray:10,10,0,0,0;}
	.st9{fill:#D1D921;}
</style>
<g id="фон">
	<rect class="st0" width="4500" height="3000"/>
</g>
<g id="фон_завода">
	<polygon class="st1" points="1925.4,1345.8 1855.9,1318.4 1854.1,1443.8 1863.2,1449.5 1863.1,1689.1 1925.4,1715.1 	"/>
	<polygon class="st1" points="2018.4,1713 1984.3,1699.5 2006.1,1690 2006.1,1566 2017.5,1569.3 	"/>
	<polygon class="st1" points="2254.1,1313.5 2219.5,1300.1 2220.1,1352.5 2254.1,1340.5 	"/>
	<polygon class="st1" points="2254.1,1401.5 2221.1,1411.5 2221.1,1555.5 2229.6,1561 2229.6,1587.5 2221.1,1592.5 2221.1,1604.4 
		2254.1,1617.5 	"/>
	<polygon class="st1" points="2773.1,1257.5 2654.9,1209.2 2652.3,1191 2602.1,1167.5 2602.1,938.9 2773.1,1007.1 	"/>
	<polygon class="st1" points="2652.3,1281.7 2775.1,1332.5 2775.1,1462.5 2653.4,1415.6 	"/>
	<polygon class="st2" points="746.7,2415.7 667.3,2614.7 535.9,3000 673,3000 766.3,2685.9 808.3,2592.6 1022.5,2181.3 1073,2095.9 
		1089.2,2080.9 2990.3,1467.7 2930.1,1439.7 1193,1990.8 1114.6,2000.2 1211.4,1775.8 1360.5,1478 1463.5,1284.5 1551.9,1141 
		1635.8,1019.1 1751,869.8 1854.1,751.1 1965.9,635.5 2079.7,530.1 2256.1,388.7 2419.6,277.2 2620.9,168.7 2802.5,91.7 3090,2.1 
		2802.5,0 2227.5,243.6 2132,360.5 1885.9,552.7 1673.9,758.9 1480,989.3 1382.8,1129.6 1203.6,1496.3 1155,1578 	"/>
</g>
<g id="завод1">
	<path class="st3" d="M1928,1473"/>
	<polyline class="st4" points="1986.2,1701.7 2019,1715.5 2019,1571 	"/>
	<line class="st4" x1="1906" y1="1341" x2="1906" y2="1471"/>
	<line class="st4" x1="1887" y1="1332" x2="1887" y2="1462"/>
	<line class="st4" x1="2231" y1="1563" x2="2231" y2="1593"/>
	<line class="st4" x1="1912" y1="1343" x2="1912" y2="1473"/>
	<polyline class="st4" points="2257.4,1316.6 2222,1301.7 2222,1356 	"/>
	<line class="st4" x1="2223" y1="1415" x2="2223" y2="1559"/>
	<polyline class="st4" points="2280,1336 2280,1310 2256,1317 2256,1344 	"/>
	<polyline class="st4" points="2256,1405 2256,1621 2223,1607.9 2223,1594 	"/>
	<polyline class="st4" points="2327,1381 2327,1568.8 2291,1553.9 2291,1393 	"/>
	<path class="st4" d="M2249,1298v-45c0,0,11.3,28,120.5,28c110.2,0,120.5-28,120.5-28v260c0,0-10,54.6-163,47.6"/>
	<polyline class="st4" points="2491.3,1245.8 2369.5,1187.7 2247.6,1245.2 	"/>
	<line class="st4" x1="2368" y1="1188" x2="2368" y2="1141"/>
	<path class="st4" d="M2410.6,1196.5c0,0,13.8,33.5,122.9,33.5c110.2,0,120.5-28,120.5-28v260c0,0-10,54.6-163,47.6"/>
	<path class="st4" d="M2413,1247"/>
	<polyline class="st4" points="2656.3,1195.8 2534.5,1137.7 2409.8,1196.5 	"/>
	<line class="st4" x1="2411" y1="1195" x2="2411" y2="1207"/>
	<line class="st4" x1="2939.4" y1="1159.4" x2="3114.3" y2="1231"/>
	<polyline class="st4" points="2777,1336 2777,1466 2655.3,1416.6 	"/>
	<polyline class="st4" points="3076,1369 3076,1314 3026,1330.5 3026,1386 	"/>
	<polyline class="st4" points="2809,1326 2809,1456 2846,1443.6 2846,1314 2809,1326 	"/>
	<line class="st4" x1="2839" y1="1316" x2="2839" y2="1445"/>
	<line class="st4" x1="2901" y1="1297" x2="2901" y2="1426"/>
	<line class="st4" x1="2935" y1="1286" x2="2935" y2="1415"/>
	<line class="st4" x1="2942" y1="1284" x2="2942" y2="1413"/>
</g>
<g id="завод">
	<line class="st4" x1="1927.2" y1="1718.6" x2="1927" y2="1478"/>
	<polyline class="st4" points="1864.9,1453 1864.7,1692.6 1927.1,1718.6 1983.7,1701.2 2008,1693.6 2008,1452.6 1926.8,1477.9 
		1864.7,1452.4 1856,1448.8 1856,1320 	"/>
	<polyline class="st4" points="2020.3,1716.5 2216,1653 2216,1596 	"/>
	<path class="st4" d="M2216,1595.8"/>
	<polyline class="st4" points="2008,1568.3 2019,1572.8 2216,1511.6 	"/>
	<polyline class="st4" points="2008,1505.7 2118.7,1470.9 2217,1510.6 2217,1558.3 2019,1620.6 	"/>
	<polyline class="st4" points="1927.1,1349.3 2019,1319.5 2019,1448.9 2008,1452.6 	"/>
	<polyline class="st4" points="2020.3,1318.8 1948.3,1290.9 1859.3,1320.4 1927.1,1349.4 1926.8,1477.9 	"/>
	<line class="st4" x1="1886.3" y1="1344.7" x2="1906" y2="1352.8"/>
	<line class="st4" x1="1886.3" y1="1355.7" x2="1906" y2="1363.8"/>
	<line class="st4" x1="1886.3" y1="1365.7" x2="1906" y2="1373.8"/>
	<line class="st4" x1="1887.3" y1="1375.7" x2="1907" y2="1383.8"/>
	<line class="st4" x1="1887.3" y1="1386.7" x2="1907" y2="1394.8"/>
	<line class="st4" x1="1887.3" y1="1396.7" x2="1907" y2="1404.8"/>
	<line class="st4" x1="1886.3" y1="1405.7" x2="1906" y2="1413.8"/>
	<line class="st4" x1="1886.3" y1="1416.7" x2="1906" y2="1424.8"/>
	<line class="st4" x1="1886.3" y1="1426.7" x2="1906" y2="1434.8"/>
	<polyline class="st4" points="1936,1319 1936,1278 2604,1067 	"/>
	<polyline class="st4" points="2019,1440.1 2328,1342.8 2328,1343 2328,1381.4 2008.4,1482.8 	"/>
	<line class="st4" x1="2019" y1="1420.8" x2="2301.8" y2="1330.2"/>
	<line class="st4" x1="2329.2" y1="1342" x2="2300" y2="1330"/>
	<polyline class="st4" points="2018,1628.6 2228.3,1562.4 2216,1555.3 	"/>
	<line class="st4" x1="2231" y1="1591" x2="2020.3" y2="1657.2"/>
	<polyline class="st4" points="2257,1621.8 2280,1614.8 2280,1397 	"/>
	<polyline class="st4" points="2280,1310 2242.3,1294.8 2220.9,1300.8 	"/>
	<line class="st4" x1="2327" y1="1409.6" x2="2291" y2="1394.7"/>
	<line class="st4" x1="2327" y1="1416.6" x2="2291" y2="1401.7"/>
	<line class="st4" x1="2328" y1="1424.6" x2="2292" y2="1409.7"/>
	<line class="st4" x1="2328" y1="1431.6" x2="2292" y2="1416.7"/>
	<line class="st4" x1="2326" y1="1437.6" x2="2290" y2="1422.7"/>
	<line class="st4" x1="2326" y1="1444.6" x2="2290" y2="1429.7"/>
	<line class="st4" x1="2327" y1="1452.6" x2="2291" y2="1437.7"/>
	<line class="st4" x1="2327" y1="1459.6" x2="2291" y2="1444.7"/>
	<line class="st4" x1="2327" y1="1466.6" x2="2291" y2="1451.7"/>
	<line class="st4" x1="2327" y1="1473.6" x2="2291" y2="1458.7"/>
	<line class="st4" x1="2328" y1="1481.6" x2="2292" y2="1466.7"/>
	<line class="st4" x1="2328" y1="1488.6" x2="2292" y2="1473.7"/>
	<line class="st4" x1="2326" y1="1494.6" x2="2290" y2="1479.7"/>
	<line class="st4" x1="2326" y1="1501.6" x2="2290" y2="1486.7"/>
	<line class="st4" x1="2327" y1="1509.6" x2="2291" y2="1494.7"/>
	<line class="st4" x1="2327" y1="1516.6" x2="2291" y2="1501.7"/>
	<line class="st4" x1="2328" y1="1524.6" x2="2292" y2="1509.7"/>
	<line class="st4" x1="2328" y1="1531.6" x2="2292" y2="1516.7"/>
	<line class="st4" x1="2328" y1="1539.6" x2="2292" y2="1524.7"/>
	<line class="st4" x1="2327" y1="1546.6" x2="2291" y2="1531.7"/>
	<line class="st4" x1="2327" y1="1553.6" x2="2291" y2="1538.7"/>
	<line class="st4" x1="2327" y1="1560.6" x2="2291" y2="1545.7"/>
	<line class="st4" x1="2328" y1="1567.6" x2="2292" y2="1552.7"/>
	<line class="st4" x1="2534" y1="1138" x2="2534" y2="1089"/>
	<polyline class="st4" points="2604,1171 2604,940 2775,1010.6 2775,1261 2654,1211.5 	"/>
	<polyline class="st4" points="2774.8,1010.6 2939,958.8 2939,1207 2775,1261 	"/>
	<line class="st4" x1="2604" y1="940" x2="2763.9" y2="889.3"/>
	<line class="st4" x1="2939" y1="958.8" x2="2763" y2="889"/>
	<polygon class="st4" points="2697,1052.6 2697,1008.3 2774.6,1040.9 2908,998.8 2908,1044 2774.8,1085.3 	"/>
	<polygon class="st4" points="2697,1167.6 2697,1123.3 2774.6,1155.9 2908,1113.8 2908,1159 2774.8,1200.3 	"/>
	<polygon class="st4" points="2697,1110.6 2697,1066.3 2774.6,1098.9 2908,1056.8 2908,1102 2774.8,1143.3 	"/>
	<polyline class="st4" points="2774.8,1048 2900,1009 2900,1046 	"/>
	<polyline class="st4" points="2775.8,1106 2901,1067 2901,1104 	"/>
	<polyline class="st4" points="2775.8,1163 2901,1124 2901,1161 	"/>
	<polyline class="st4" points="2776.9,1466 3113,1357.8 3113,1231 3076.9,1242.4 2777.5,1335.8 2653.9,1285.2 	"/>
</g>
<g id="направляющие">
	<path class="st5" d="M670.3,1144.2"/>
	<path class="st5" d="M744.3,1020.8"/>
	<path class="st6" d="M1206,1138.2c29.4,11.4,30,9.2,41.2,16.4c9.7,6.2,26.4,17.5,20.4,41.9c-20.9,84.5-87,161.6-120.2,183
		c-2.1,1.3-7.2,4.5-15,6.9c-26.8,7.9-63.7,16.8-84.6-0.9c-2.7-2.3-12.9-8.9-13.1-31.2c-0.1-10.2,2.6-24.8,4.7-28.5
		c53.3-95,91.2-147.2,108.5-181.5c1.4-2.7,9.3-11.8,17.8-14.2C1175,1127.5,1188.2,1131.3,1206,1138.2z"/>
	<path class="st6" d="M0,754c432.4,145.9,589.5,185.1,627,197.3c14.9,4.9,25.9,10.8,26,19.8c0.2,27-18,56.9-22.1,62
		c-6.2,7.7-12.7,14-23.1,17.2c-13.7,4.2-27.3,0.9-32.1-0.3C469.3,1023.9,100,889.6,100,889.6S55.2,874.2,0,858"/>
	<path class="st4" d="M535,3003c1.3-3.5,118-408.1,312-810l188-383.8l120-231.2c7.8-12.6,67.8-99.8,51.2-105.4l-482-147.9
		c-23.7-8.1-34.3-29.6-23.4-47.7l136.4-227.3c9.2-15.3-0.3-33.3-20.6-39.5l-60-18.1c-18.9-5.7-40.2,1.1-48.4,15.3l-52.5,90.2
		c-9.4,16.4-34.2,23.8-55.5,16.7c-171.5-61.8-345-120-520.3-174.5C45.3,929,34.8,922.5,0,912"/>
	<path class="st4" d="M3690.2,3000l232.9-414.3c11.8-21.2,0.4-46.4-25.1-55.6l-394.7-142.7c-27.7-10-40-37.4-27.2-60.4l126.8-227.6
		c9.7-17.5,0.3-38.3-20.8-45.8l-129.4-46.2"/>
	<path class="st4" d="M3783,3000l444.7-814.1c11.8-21.4,0.3-46.8-25.5-56.1l-260.2-93.6c-18.5-6.6-15.9-20.7-2.8-32.9
		c6.7-6.2,15.2-10.9,24.5-13.9l467.4-149.8c6.9-12.6-7.3-26.1-23.1-21.9l0,0c-7.8,2.1-22.1,9.6-34.7,12.4L3922.2,1960
		c-21,6-40.9,14.5-58.5,25.9c-10.8,7-22.2,7.6-35.3,2.9l-89.6-32.5c-0.1,0-0.2-0.1-0.3-0.1c-14.6-5.4-13.5-23.1,1.7-27.2l58.7-15.7
		c29.2-7.8,36.5-40,12.5-56c-0.7-0.5-1.3-0.8-1.8-1.1l-241.5-113.8c-5.5-2.9-11.9-4.4-18.4-4.4l-171.3-19.3
		c-7.3,0.1-54.6,13.9-54.6,13.9l5.2,13.9c2.7,7.3,10.8,12.3,20,12.3l141.3-0.7c5.5,0,10.8,1.2,15.5,3.5l246.2,102.5
		c0.4,0.2,0.7,0.4,1.1,0.6c12.6,7,9.6,23.3-4.7,27.3l-73.4,20.7c-23.3,6.6-28.6,32.9-8.6,45c1.5,0.9,3,1.6,4.5,2.2l25,10l114.5,65.9
		c21.1,7.3,30.6,28,20.9,45.4L3670,2371.8c-4.6,8.4-16.3,12.1-26.4,8.4l-84.6-30.8c-10.3-3.8-15.1-13.9-10.5-22.6l132.7-252.1
		c9.6-18.3-0.2-39.6-21.8-47.7l-181.1-67.5"/>
	<path class="st6" d="M917,1078.2c-9.1,5.6-19.6,5.7-54.3,85.4c-15.4,35.4-22.4,52.1-26.7,60.2c-6.6,12.6-23.6,36.8-34,49.6
		c-0.9,1.1-4.9,5-6,10.8c0,0-0.9,4.8,1,10c1.9,5.1,42,52.3,130,47.8c33.5-1.7,52.4-11,58-13.9c11.7-6.1,25.7-19.3,34.3-34.5
		c20.7-36.1,38.3-59.6,76-134.2c1.6-3.1,18.5-27.9,18.7-43.4C1114.2,1099.8,972.9,1043.9,917,1078.2z"/>
	<path class="st6" d="M4421.3,0l-180.4,239.8c-6.7,8.8-19.8,14.7-35.1,15.8l-618.5,101c-22.2,1.5-44.8-2.7-62.9-11.8l-14.9-7.5
		c-17.2-8.7-22.2-9.5-29.8-15.2c-9.7-7.3-15.3-16.5-16-26l-1-12c1.3-29.9-6-25.9,27.1-41.2c3.3-1.5,6.7-2.9,10.3-4.1l17.3-5.9
		l93.8-15l493.5-79.5l42.6-21.1c12.9-6.4,19.3-16.8,16.9-27.5l-17.9-78.6"/>
	<path class="st6" d="M4478.7,0l-230.9,327c-10.5,14.9-14.4,31.5-11,48.1l6.2,31c9.4,46.8,72.8,82.4,145.5,81.7l111.5-19.1"/>
	<path class="st4" d="M4500,498.8l-123.9,19.1c-85.4,1.1-160.1-40.9-170.7-96l-4.4-82.1c-3.7-19.3-31.1-33.6-60.9-31.6L3622,391.1
		c-29.5,2-50.3,18.7-47,37.9l4.3,24.8c6.4,37.4-22.3,72.7-72.8,89.8l-7.4,2.5c-7.1,2.4-15,3.9-23.1,4.4L3226.9,592l-20.5,3.3
		l-7.1,1.1c-4.5,0.7-9.2,0.3-13.4-1.1l-22.4-7.5l-38-12.7c-11-3.7-13.4-13.2-4.6-18.4c7.7-4.6,16.1-9.4,21.6-12l12.2-4.7
		c33-11.8,59.4-29.8,75.9-51.7l18.1-24c20.1-26.7,53.4-48.1,94.8-60.9l18.7-5.8c25.6-8,42.1-24.2,43.5-42.8l2.6-35.6l5.6-81.7v0
		c-0.7-13.6,8.8-26.3,25.5-34.1l30.4-14.3c32.5-15.3,47.7-41.7,38.8-67.8l-47.6-139.8"/>
	<path class="st6" d="M3488.3,387.8c-4.3-1-15.1-3.6-26-1.1c-8.3,1.9-11.3,6.5-14.3,7.1c-161.4,35.8-168.3,107.4-199.3,117.2
		c-2.1,0.7-10.4,3.1-13.4,8.5c-2.5,4.5-0.3,9.1,0.6,10.3c8.2,12,90.3,7.6,173.5-6.7c26.7-4.6,43.8-8.7,85.8-20.9
		c7.6-2.2,13.5-6.2,16.5-11.3c8.9-15,23.1-44.6,16-64.7C3521.4,408.8,3509.9,393,3488.3,387.8z"/>
	<path class="st6" d="M3829.4,1.3c-133.4,21.7-231.1,38.2-258.1,43c-3.7,0.7-12,2.2-18.3,6.9c-4.2,3.2-12.5,11.5-3.6,36
		c7.3,20.1,17.2,47.2,51.4,61.6c13.2,5.6,28.8,8.7,91.8,6.6c61-2.1,89.5-6.4,259.8-35.2c7.1-1.2,14.9-2.6,22.3-6.8
		c37.9-21.4,6.3-81.4-11.2-110.2"/>
	<path class="st4" d="M4094.4,7.7c5.8,51.2,10.7,79.7,15.1,89.7c0.6,1.3,2.6,5.5-0.4,9c-5.3,6.3-22.9,6.5-28.3,5.9
		c-26.4-3.1-37.6-59.8-42.4-107"/>
	<path class="st6" d="M3471.5,2169.7l18.7,36.6c4.1,8,0,17.7-8.5,20.4l-107.2,34.1c-5.3,1.7-11.1,0.6-15.5-2.9l-26-20.8
		c-3-2.4-5.4-5.5-6.9-9l-9.8-22.6c-3.8-8.7,1.6-18.6,10.9-20.3l128.5-23.3C3462.2,2160.8,3468.5,2164,3471.5,2169.7z"/>
	<path class="st6" d="M2693.5,2027.1l66.6,62.4l19.6,11.5c3.8,2.2,8.3,3,12.7,2.1l245.9-74.2c11.3-2.3,17.1-14.9,11.5-24.9l-1.9-3.6
		c-3.2-3.7-4.3-4.2-8.8-6.2l-89.5-28.6c-31-13.8-66.2-14.9-98-3.1l-154.9,48.8C2689.8,2013.7,2688.2,2022.4,2693.5,2027.1z"/>
	<path class="st6" d="M3013.3,1879.9l217-69.5c14.5-3.7,29.8,0.3,40.7,10.4l68,63.2l-11.1,13c-4.5,5.2-10.4,8.9-17.1,10.6
		l-219.7,56.3c-6.5,1.7-13.4,0.9-19.3-2.3l-19.5-10.3c-23.2-12.3-35.3-21.7-37.3-47.9L3013.3,1879.9z"/>
	<path class="st6" d="M2891.8,1836.4c52.7-14.1,207-68.7,264.8-84.2c8.2-2.2,6.6-15-0.5-19.7l0,0l-346,26.7
		c-8.4,0.6-11.7,11.1-5.2,16.5l48.2,40C2861.5,1822.9,2881.1,1839.3,2891.8,1836.4z"/>
	<path class="st6" d="M3022.5,1430.4c6-0.9,143-46.3,184.1-56c6.7-1.6,13.8-0.8,20,2.1l91.4,43.4l3,4.1c6.2,8.6,1.8,20.7-8.5,23.2
		l-197,65.2c-10.8,2.7-22.2-0.7-29.8-8.9L3022.5,1430.4z"/>
	<path class="st6" d="M2383.8,1722l221.9-72.6l30.8,6.6c7.5,0,14.7,2.4,20.7,6.9l63.8,47.8c7.4,5.5,7.1,16.6-0.6,21.8l-24.8,16.6
		l-183.1,59.4c-7,1.9-14.5,0.6-20.4-3.6l-99.5-74.6l-9.1-4.1C2381.5,1725.3,2381.7,1722.5,2383.8,1722L2383.8,1722z"/>
	<path class="st6" d="M2805.9,2138.9c14.3-5.8,34.3-14,42.4-17.3c2.4-1,5-1.8,7.6-2.3l225.6-43.2c6.7-1.3,13.6,1.4,17.6,6.8
		l66.9,89.7c3.5,4.6,4.9,7.3,3.8,11.7c-0.9,3.8-3.3,7.2-6.5,9.5l-2.6,1.9c-2.4,2.4-5.3,4.1-8.6,5l-233.3,73.6
		c-6.4,1.7-13.2-0.2-17.7-5l-99.4-111.8C2796.3,2151.6,2798.4,2141.9,2805.9,2138.9z"/>
	<path class="st6" d="M2917,2426.1l69.6-23.4c6.7-2.2,14.1-0.3,18.8,5l55.3,61.9c5.7,6.4,8.4,14.9,7.4,23.4l-0.1,0.7
		c-0.6,5.5-4.8,10-10.3,10.9l-87.1,15.5c-5.3,1-10.8-0.4-15.1-3.8l-12-9.4l-35.6-55.7C2902.1,2442,2906.5,2429.6,2917,2426.1z"/>
	<path class="st6" d="M2078.3,2174.8l260.2-79.2l296.3-57.5c7.9-1.5,16,1.1,21.5,6.9l153.2,160.4c11,11.5,8.2,22.7-7,27l-531,168.8
		c-6.3,1.8-17.1-4.4-22.5-8.2l-57.4-40.5c-6.1-4.3-11.4-9.5-15.7-15.5l-103.8-144.1C2067.5,2186.4,2070.6,2177.1,2078.3,2174.8z"/>
	<polygon class="st6" points="2282.5,1885.6 2439,1851 2464,1851 2551,1929 2536.9,1949.3 2382.1,1998.5 2349,1973 	"/>
	<path class="st6" d="M1392.3,1665.2l90.7-13.4c36.3-5.4,72.3,11.7,91,43.3l50,84c7.6,12.7,5.1,29-5.9,38.9l0,0
		c-0.7,0.7-1.6,1.2-2.6,1.5l-286.7,84.1c-5.1,1.5-9.8-3.3-8.3-8.3l19.2-63.9c0.8-2.5,3-4.4,5.6-4.7l89.9-10.6
		c26.6-3.1,50.5-17.5,65.7-39.5v0c7.7-11.1,10.6-24.9,7.9-38.2l-7-34.8c-0.5-2.7-2.6-4.7-5.3-5.3l-104.6-19.8
		C1384.6,1677,1384.8,1666.3,1392.3,1665.2z"/>
</g>
<g id="дорога">
	<path class="st4" d="M3090,2.1l-79.5,25.1c-1.4,0.5-46.6,13.1-48,13.5C2259,231.1,1648,841.7,1324.6,1554.1l0,0
		c0,0-217.5,437.2-205.6,447.6c12.8,11.2,122.4-23.5,122.4-23.5l392.9-124.9c0,0,404-125.3,1292.8-411.6c3.4-1.1,7-0.9,10.3,0.5
		l39.1,17.4l14.9,6.6c1,0.4,0.9,1.9-0.1,2.2c-9.4,3.3-39.4,13.6-54.5,18.6c-31.5,10.4-1663.4,532.5-1829.1,583.7
		c-10.6,3.3-24.7,14.9-24.7,14.9l-3.2,3.1c-5,4.6-6.6,6.2-9.8,12.2L1002,2216l-193.7,376.6c-4.7,8.8-0.9,18.8,8.5,22.2
		c399,146.1,574.4,129.1,615.2,130.9c19.3,0.8,27.9,3.6,40.3-0.7c13.4-4.7,13.6-13.1,19.3-27.2c21.4-58.5,11.1-29.2,26.8-70.2
		c9.1-28.5,38.7-96.7,38.7-96.7s62.8-164.9,68.6-185.6c0.1-0.3,0.2-0.6,0.2-0.9c1.8-8.6-4.9-16.7-13.7-17.2l-5.9-0.3
		c-5.2-0.3-10.4,0.3-15.3,1.9l-382.2,119.3c-3.2,1.1-14.6-1.8-14.6-1.8l-3.7-1.6l-11.9-6.1c0.2-2.4,21.3-10.6,21.3-10.6l6.5-2.8
		l26.4-8.4L1627,2310l321.9-100.8l16.5-6.3c2-0.8,4.3-0.7,6.2,0.2l11.3,5l5.6,2.5l7.6,3.4l0,0c1.6,0.7,1.5,3-0.2,3.6l-30.1,10.4
		l-262.8,83.1l-16.1,5.1c-10.1,3.2-18.1,11-21.6,21.1l-0.1,0.2L1561,2634.4l-19.7,69.9l-4.3,16c-1.8,6.5,1.4,13.4,7.6,16.1
		c13.5,6,22.7,5.8,44.1-1.2c0.4-0.1,0.9-0.3,1.3-0.4c53.6-12,266.4-78.7,266.4-78.7l97.4-31l437.3-139l839.7-272
		c2.4-0.8,5.1-0.7,7.4,0.4l23.4,10.4l6.3,2.8l16.7,7.4l0,0c2.3,1,2.1,4.4-0.3,5.1l-18.7,6L2635,2449c0,0-138.9,39.3-310.9,97.3
		c-352,118.7-432.5,152.3-432.5,152.3s-202.6,69.6-237.9,81c-116.4,37.6-259.1,39.5-385.7,16.4c-163.2-29.8-479-115-479-115l-3.1-1
		c-9.4-2.9-19.4,2.2-22.6,11.5c-18.3,54.1-71.1,202.5-90.3,311.5"/>
	<path class="st4" d="M2809-1.1l-520.8,222.9c-44.2,13.9-91.2,34.8-145.2,54.3c-10.3,3.7-29.9-2.6-37.8-4.9l-173.2-67.3
		c-12-3.6-17.5-15.3-11.7-24.6l13.2-23c5.8-9.2,1.2-20.8-10.1-25.5L1372.4-1.1"/>
	<path class="st6" d="M1176.6,10.1l472.7,134.2l228.5,61.2l7.9,2.1c8.1,2.1,12.1,9.2,8.6,15.2l-14.2,24.7c-6.7,11-7.1,18.9,8,22.5
		l249.3,75.2c16.6,4-23.5,28.4-36.3,37.5c-456.6,322.9-713.4,738.1-713.4,738.1c-7,6.8-14.1,13.7-20.4,20.9
		c-7.7,8.8-15.8,16.9-29.6,12.6l-383.1-147.8c-24.7-8-36-30.1-24.9-48.9l70.1-119.1c13.5-22.8-0.5-49.7-30.7-59.1l-280.6-87.5
		c-2.4-0.7-5-0.8-7.5-0.2l-34.1,8.4l-23.7,5.8c-2.2,3.9,1,4.8,6.1,6.4L930,805.3c16.4,5.1,24.1,19.7,17,32.2l-62.2,108.8
		c-9.9,17.2-35.8,25.2-58.3,17.9L0,696"/>
	<path class="st6" d="M3990.7,2088.1c45,12.6,123,57,148,70.2c11.6,6.1,32.4,15.6,32,25.7c-0.9,25.1-39.5,74.2-51,92.3
		c-54.1,84.9-106.8,169.9-130.7,208.5c-7.5,12.2-24.9,17.4-39.9,12c-48.4-17.4-150.2-54-195.2-70.1c-12.1-4.3-17.3-16.3-11.6-26.2
		c37.8-65,163.2-296.3,165.8-301.2c4.8-8.8,4.8-9.5,5.9-10.5c15.5-13.8,40.7-12.4,61.8-5.6C3981.1,2085,3986.1,2086.8,3990.7,2088.1
		z"/>
</g>
<g id="пунктир">
	<polyline class="st7" points="607,3000 723,2617 831,2425 1371,1294.8 	"/>
	<line class="st8" x1="1068.8" y1="2050.9" x2="2301.8" y2="1665.4"/>
	<g>
		<path d="M843.1,2680.2l-7.7-19.6l-5,3.1l-3.3,12.3l-4.3-1.1l3.3-12.3l-2.8-5.1l-16.4,13.2l-5.5-1.4l19.8-15.6l-9.6-17l5.5,1.4
			l10.4,19.2l4.1-15.4l4.3,1.1l-4.1,15.4l18.5-11.5l5.5,1.4l-16.8,10.1l9.5,23.4L843.1,2680.2z"/>
		<path d="M856.9,2648.5l4.8,1.3l4.3,22.7l14.8-17.6l4.7,1.2l-19.8,22.9c-4.3,4.9-7.5,6.1-10.8,5.2c-1.5-0.4-3-1.3-3.9-1.9l1-3.7
			c0.5,0.5,1.5,1.3,3.5,1.8c2.3,0.6,4.4-1.2,6.1-3.3l0.9-1L856.9,2648.5z"/>
		<path d="M902.7,2660.6c6.3,1.7,10.3,5.5,8.5,12.4c-2,7.5-7.5,8.7-13.9,7l-9-2.4l-3.6,13.6l-4.4-1.2l8.7-33L902.7,2660.6z
			 M889.3,2674l8.4,2.2c4.2,1.1,7.8,0.8,9.1-4.1c1.4-5.3-2.2-7-6.5-8.2l-7.8-2.1L889.3,2674z"/>
		<path d="M936.5,2704.9l-4.4-1.2l4.1-15.5l-17.5-4.6l-4.1,15.5l-4.4-1.2l8.7-33l4.4,1.2l-3.6,13.8l17.5,4.6l3.6-13.8l4.4,1.2
			L936.5,2704.9z"/>
		<path d="M970.6,2713.8l-4.9-1.3l-1-11.1l-13.9-3.7l-6.4,9.1l-4.6-1.2l21.7-29.6l4.9,1.3L970.6,2713.8z M962.8,2680.9l-9.7,13.8
			l11.3,3L962.8,2680.9z"/>
		<path d="M998.3,2721.1l-4.4-1.2l7.7-29.2l-12.2-3.2l-5.6,18.4c-2,6.6-5.6,10.6-10.6,9.3c-0.9-0.2-2.2-0.9-3-1.5l1-3.7
			c0.5,0.5,1.7,1,2.2,1.1c2.4,0.6,4.4-0.2,6.9-8.6l5.9-20l20.7,5.5L998.3,2721.1z"/>
		<path d="M1014.4,2690.1l4.4,1.2l-7.4,28l0.1,0l23.6-23.7l5.5,1.5l-8.7,33l-4.4-1.2l7.4-28.1l-0.1,0l-23.7,23.8l-5.5-1.4
			L1014.4,2690.1z"/>
		<path d="M1052.7,2736.3c-9.4-2.5-13.6-10.7-10.8-21.3c2.5-9.5,10-15.9,20.2-13.2c6.5,1.7,12.1,7.1,10.9,14.3l-4.4-1.2
			c0.2-4.6-2.7-8.1-7.6-9.4c-7.8-2.1-12.9,3.6-14.7,10.6c-2.2,8.4,0.7,14.7,7.5,16.5c5.6,1.5,9.9-1,12.3-6.9l4.4,1.2
			C1067.5,2735,1060.9,2738.5,1052.7,2736.3z"/>
		<path d="M1102.5,2717.4l-11.1-2.9l-7.7,29.2l-4.4-1.2l7.7-29.2l-11.1-2.9l1-3.8l26.6,7L1102.5,2717.4z"/>
		<path d="M1131.9,2738.4c-2.6,9.7-10,16.2-20.5,13.4c-10.6-2.8-13.7-12.3-11.2-21.9c2.7-10.3,10.6-15.3,20.2-12.8
			C1130.8,2719.9,1134.5,2728.6,1131.9,2738.4z M1104.6,2731.4c-2.2,8.3,0.9,14.8,7.9,16.6c6.9,1.8,12.8-2.4,15-10.6
			c2.2-8.2-1-14.6-8-16.5C1111.7,2718.9,1106.4,2724.4,1104.6,2731.4z"/>
		<path d="M1155.8,2727.3c5.5,1.4,10,5,8.4,11c-0.9,3.2-3.5,5.5-6.7,5.8c3.8,2,5.3,5.7,4.2,10c-2,7.6-8.7,7.7-15,6l-13.6-3.6l8.7-33
			L1155.8,2727.3z M1138.2,2754.1l8.7,2.3c4.4,1.2,8.8,2,10.3-3.8c1.5-5.8-3.6-7-8-8.2l-8-2.1L1138.2,2754.1z M1142.2,2738.9
			l7.8,2.1c3.7,1,8.2,1.9,9.6-3.1c1.3-5-2.5-6.2-6.4-7.2l-8.3-2.2L1142.2,2738.9z"/>
	</g>
	<g>
		<path d="M1413.8,1229c4.6-7,11.1-8.4,17.9-4c6.7,4.4,8,10.9,3.4,17.9l-10.9,16.7l-35.7-23.4l16-24.5l4.1,2.7l-12.9,19.8l10.3,6.8
			L1413.8,1229z M1416.9,1233.2l-6.8,10.4l13.1,8.5l6.8-10.4c3.4-5.2,3-9.2-1.3-12.1C1424.2,1226.8,1420.4,1228,1416.9,1233.2z"/>
		<path d="M1465.7,1196.2l-3.5,5.3l-13.5-3.2l-9.8,15l8.3,11.2l-3.3,5l-26.5-37.5l3.5-5.3L1465.7,1196.2z M1423.5,1192.5l12.5,17
			l8-12.2L1423.5,1192.5z"/>
		<path d="M1439.1,1153.5c-2.7,4.2-7.6,5.2-11.9,3.1l1.7-2.6c2.9,0.9,5.5,0.1,7.2-2.5c1.7-2.6,1.3-5.2-0.6-7.6l1.7-2.6
			C1440.7,1144.7,1441.9,1149.1,1439.1,1153.5z M1432.3,1169.3l3.1-4.7l30.3,19.8l0.1-0.1l-18.8-37.3l3.9-6l35.7,23.4l-3.1,4.7
			l-30.4-19.9l-0.1,0.1l18.9,37.5l-3.9,5.9L1432.3,1169.3z"/>
		<path d="M1479.5,1128.5l31.6-1.7l-3.9,6l-26.7,1.1l1.7,9.6l12.5,8.2l-3.1,4.7L1456,1133l3.1-4.7l17.7,11.6l-5.9-29.7l4-6.2
			L1479.5,1128.5z"/>
		<path d="M1532.6,1094l-3.5,5.3l-13.5-3.2l-9.8,15l8.3,11.2l-3.3,5l-26.5-37.5l3.5-5.3L1532.6,1094z M1490.5,1090.3l12.5,17l8-12.2
			L1490.5,1090.3z"/>
		<path d="M1552.2,1064.1l-3.1,4.7l-31.6-20.7l-8.6,13.2l19.7,13.9c7,5,10.4,10.9,6.8,16.3c-0.7,1-2,2.3-2.9,3l-4-2.6
			c0.8-0.4,1.8-1.7,2.2-2.2c1.7-2.6,1.5-5.3-7.4-11.5l-21.4-14.9l14.7-22.4L1552.2,1064.1z"/>
		<path d="M1567.7,1040.4l-10.3,15.7l-35.7-23.4l3.1-4.7l14.5,9.5l7.2-10.9c4.6-7,11.1-8.5,17.8-4
			C1571,1026.8,1572.3,1033.4,1567.7,1040.4z M1549.5,1030.7l-6.1,9.3l13.1,8.5l6.1-9.3c3.4-5.2,3-9.2-1.3-12.1
			C1556.8,1024.3,1552.9,1025.5,1549.5,1030.7z"/>
		<path d="M1589.3,1009.3c-6.7,10.2-18.1,11.8-29.5,4.3c-10.2-6.7-14.8-18.2-7.6-29.2c4.6-7,13.1-11.5,21.2-7.2l-3.1,4.7
			c-5.4-2-10.7,0-14.2,5.3c-5.6,8.5-0.8,16.7,6.7,21.6c9.1,5.9,17.6,5,22.5-2.4c4-6.1,2.8-12.2-3.4-17.3l3.1-4.7
			C1593.6,991.1,1595.1,1000.4,1589.3,1009.3z"/>
		<path d="M1590.2,959.3l31.6-1.7l-3.9,6l-26.6,1.1l1.7,9.6l12.5,8.2l-3.1,4.7l-35.7-23.4l3.1-4.7l17.7,11.6l-5.9-29.7l4-6.2
			L1590.2,959.3z"/>
		<path d="M1643.4,924.8l-3.5,5.3l-13.5-3.2l-9.8,15l8.3,11.2l-3.3,5l-26.5-37.5l3.5-5.3L1643.4,924.8z M1601.2,921.1l12.5,17
			l8-12.2L1601.2,921.1z"/>
		<path d="M1646.8,919.6l-3.8,5.8l-7.6-22c-4.4,5.1-9.9,6.2-15.9,2.3c-6.7-4.4-7.4-11-2.8-18l10.1-15.4l35.7,23.4l-3.1,4.7l-15.3-10
			l-4.8,7.4L1646.8,919.6z M1627.6,879.6l-5.9,9c-3.4,5.2-3.5,9.3,0.9,12.2c4.4,2.9,8.1,1.2,11.5-4.1l5.9-9L1627.6,879.6z"/>
	</g>
	<path class="st0" d="M1682.8,842.8"/>
	<polyline class="st7" points="1682.8,842.8 1854.1,659.7 2070,461.2 2328,277.2 2554.2,156.1 2925,2.1 	"/>
	<line class="st8" x1="2683.9" y1="1542.2" x2="2935" y2="1466.7"/>
</g>
<g id="указатель">
	<path class="st9" d="M2925,884.5c0,216-397.1,641-397.1,641s-385.2-424.9-385.2-641s175.1-391.2,391.2-391.2S2925,668.5,2925,884.5
		z"/>
	<circle class="st9" cx="733.8" cy="2620.7" r="117.4"/>
	<g>
		<path d="M2348.5,1661.8l-11.6,3.7l-7.7-24.4l18-5.7l1.2,3.7l-13.7,4.3l1.8,5.6l7.3-2.3c5.4-1.7,9.2,0.1,10.7,4.9
			C2355.9,1656.4,2353.8,1660.1,2348.5,1661.8z M2344.6,1650.3l-7.1,2.2l2.5,8.1l7.1-2.2c2.8-0.9,3.8-2.7,3-5.3
			C2349.3,1650.5,2347.2,1649.4,2344.6,1650.3z"/>
		<path d="M2381.6,1651.4l-4.6,1.4l-4.4-5.8l-9.7,3l-0.4,7.2l-4.4,1.4l1.7-27.5l4.6-1.4L2381.6,1651.4z M2363.6,1635l-0.6,11.5
			l7.5-2.3L2363.6,1635z"/>
		<path d="M2376.1,1626.2l4.3-1.4l5.9,18.7l4.6-22.1l5-1.6l7.7,24.4l-4.3,1.4l-5.9-18.7l-4.6,22.1l-5,1.6L2376.1,1626.2z
			 M2385.6,1621.8c-3.5,1.1-5.8,0.1-7.2-3.1l2-0.6c1,1.6,2.4,2.1,4.5,1.5c2.1-0.6,2.9-1.8,2.8-3.8l2-0.6
			C2390.4,1618.6,2389.1,1620.7,2385.6,1621.8z"/>
		<path d="M2414.7,1624.8l15,11.4l-5.3,1.7l-11.7-9.2l-2.4,4.6l2.6,8.2l-4.3,1.3l-7.7-24.4l4.3-1.3l3.5,11.1l7.3-14.5l5.4-1.7
			L2414.7,1624.8z"/>
		<path d="M2452.8,1629l-4.6,1.4l-4.4-5.8l-9.7,3l-0.4,7.2l-4.4,1.4l1.7-27.5l4.6-1.4L2452.8,1629z M2434.8,1612.6l-0.6,11.5
			l7.5-2.3L2434.8,1612.6z"/>
		<path d="M2469.9,1623.6l-6.5-20.7l-7.6,2.4l3.2,11.8c1.9,6.9-0.1,10.5-3.6,11.6c-1,0.3-2,0.4-2.7,0.4l-1-3.3
			c0.6,0,1.4-0.1,1.8-0.3c1.8-0.6,2.8-2,1-8.3l-4-14.3l16-5l7.7,24.4L2469.9,1623.6z"/>
		<path d="M2490.1,1617.2l-10.8,3.4l-7.7-24.4l4.3-1.4l2.9,9.3l6.5-2.1c5.4-1.7,9.2,0.1,10.7,4.9
			C2497.6,1611.8,2495.5,1615.5,2490.1,1617.2z M2486.2,1605.7l-6.3,2l2.5,8.1l6.4-2c2.8-0.9,3.8-2.7,3-5.3
			C2491,1605.9,2488.9,1604.8,2486.2,1605.7z"/>
		<path d="M2512.7,1610.8c-6.9,2.2-13-1.5-15.5-9.2c-2.2-6.9,0.2-14.1,7.6-16.4c4.9-1.5,10.3-0.3,12.9,5.1l-4.3,1.3
			c-1.5-2.8-4.4-3.8-7.5-2.8c-5.2,1.6-5.8,6.9-4.4,11.4c1.4,4.5,4.9,8.5,10.1,6.9c4-1.3,5-4.5,4.3-8.2l4.3-1.4
			C2521.6,1603.6,2518.8,1608.8,2512.7,1610.8z"/>
		<path d="M2533,1587.6l15,11.4l-5.3,1.7l-11.7-9.2l-2.4,4.6l2.6,8.2l-4.3,1.3l-7.7-24.4l4.3-1.3l3.5,11.1l7.3-14.5l5.4-1.7
			L2533,1587.6z"/>
		<path d="M2571.1,1591.7l-4.6,1.4l-4.4-5.8l-9.7,3l-0.4,7.2l-4.4,1.4l1.7-27.5l4.6-1.4L2571.1,1591.7z M2553.1,1575.4l-0.6,11.5
			l7.5-2.3L2553.1,1575.4z"/>
		<path d="M2587.6,1586.6l-3.2-10.1l-4.9,1.5l-3.8,12.3l-5.4,1.7l4.2-12.9c-4.7,0-6.6-2.4-7.5-5.5c-1.3-4.1,0.8-7.7,6-9.3l11.1-3.5
			l7.7,24.4L2587.6,1586.6z M2581,1565.6l-6.4,2c-2.9,0.9-3.9,2.4-3.1,5c0.8,2.6,2.7,3.5,5.4,2.6l6.5-2L2581,1565.6z"/>
		<path d="M2607.3,1573.8c0.8,1.9,2.6,2.8,4.8,2.1c4-1.3,2.9-6.8,2.1-9.9c-0.7,2.4-2,4-4.4,4.7c-4.3,1.4-8.5-1-9.9-5.6
			c-1.5-4.9,0.8-9.5,5.5-11c6.8-2.1,10.5,3.7,12.2,9.2c1.8,5.8,2.2,13.6-4.8,15.8c-4.1,1.3-8-0.5-9.4-4.1L2607.3,1573.8z
			 M2603.9,1563.8c0.9,3,3.1,4.3,5.7,3.5c2.5-0.8,3.6-3.3,2.7-6.2c-1-3.1-3.3-4.5-5.9-3.7
			C2603.9,1558.3,2602.9,1560.8,2603.9,1563.8z"/>
		<path d="M2626,1575.1l-3.5,1.1l1.9-28.7l3.4-1.1L2626,1575.1z"/>
		<path d="M2652.3,1566.2l-16.4,5.2c-1.6-5.5,0.7-8.6,3.9-12.7c1.9-2.4,4.3-4.8,3.3-8.1c-0.8-2.5-2.8-3.6-5.2-2.8
			c-3.5,1.1-3.2,4.2-2.4,7l-3.8,1.2l-0.2-0.6c-1.6-5.2,0.5-9.4,5.4-11c4.7-1.5,8.7,0.4,10,4.8c1.4,4.5-1.2,7.5-3.8,10.8
			c-1.4,1.7-3.4,4.2-3.6,6.5l11.7-3.7L2652.3,1566.2z"/>
		<path d="M2667.1,1561.5l-4.2,1.3l-5.2-16.6l-6,1.9l-0.9-2.9c2.6-0.8,6.2-2.5,5.5-6.9l3.2-1L2667.1,1561.5z"/>
	</g>
</g>
</svg>
