<svg xmlns="http://www.w3.org/2000/svg" width="16" height="17" viewBox="0 0 16 17">
  <metadata><?xpacket begin="﻿" id="W5M0MpCehiHzreSzNTczkc9d"?>
<x:xmpmeta xmlns:x="adobe:ns:meta/" x:xmptk="Adobe XMP Core 5.6-c138 79.159824, 2016/09/14-01:09:01        ">
   <rdf:RDF xmlns:rdf="http://www.w3.org/1999/02/22-rdf-syntax-ns#">
      <rdf:Description rdf:about=""/>
   </rdf:RDF>
</x:xmpmeta>
                                                                                                    
                                                                                                    
                                                                                                    
                                                                                                    
                                                                                                    
                                                                                                    
                                                                                                    
                                                                                                    
                                                                                                    
                                                                                                    
                                                                                                    
                                                                                                    
                                                                                                    
                                                                                                    
                                                                                                    
                                                                                                    
                                                                                                    
                                                                                                    
                                                                                                    
                                                                                                    
                           
<?xpacket end="w"?></metadata>
<defs>
    <style>
      .cls-1 {
        fill: #9cbf29;
        fill-rule: evenodd;
      }
    </style>
  </defs>
  <path id="phone_icon" data-name="phone icon" class="cls-1" d="M1039.81,7358.17a0.3,0.3,0,0,0-.29-0.19c-0.82-1.02-2.44-2.86-3.95-2.64-1.56.22-1.73,1.94-1.54,3.18,0.05,0.32.12,0.64,0.14,0.96,0.06,0.84-1.69.21-2.05,0.06a8.043,8.043,0,0,1-3.17-2.7,3.885,3.885,0,0,1-.64-3.94c0.3-.63,2.4-0.13,2.96-0.16a0.391,0.391,0,0,0,.38-0.49c-0.73-2.24-2.81-3.38-3.93-5.34a0.254,0.254,0,0,0-.47.15c-3.12.57-3.59,4.28-3.05,6.8a11.115,11.115,0,0,0,4.67,6.85,12.367,12.367,0,0,0,7.65,2.27A3.741,3.741,0,0,0,1039.81,7358.17Zm-12.97-10.4c0.17-.13.33-0.27,0.5-0.41,0.64,1.76,2.53,2.86,3.35,4.59-0.29-.01-0.58-0.04-0.87-0.06a17.382,17.382,0,0,1-1.73-1.99c-0.13-.19-1.22-2.1-1.3-2.08A0.054,0.054,0,0,0,1026.84,7347.77Zm12.27,11.6a0.052,0.052,0,0,0-.04-0.02,9.33,9.33,0,0,1-3.57-2.5c-0.15-.2-0.48-0.02-0.34.2a6.916,6.916,0,0,0,3.74,2.7,0.189,0.189,0,0,0,.15-0.01,3.028,3.028,0,0,1-.58,1.45,3.367,3.367,0,0,1-2.65,1.02,12.233,12.233,0,0,1-6.32-2.06,10.279,10.279,0,0,1-4.26-5.56,7.648,7.648,0,0,1-.33-4.13,4.358,4.358,0,0,1,1.6-2.4,3.164,3.164,0,0,0,.53,1.16,14.883,14.883,0,0,0,1.31,1.93c0.16,0.21.37,0.49,0.6,0.74a1.6,1.6,0,0,0-1.63,1.64c-0.36,2.66,1.65,4.94,3.77,6.3,0.98,0.63,3.79,1.64,3.85-.35,0.04-.98-0.47-1.85,0-2.82,0.87-1.78,3.36,1.16,4.04,1.85a0.374,0.374,0,0,0,.22.12C1039.16,7358.88,1039.14,7359.13,1039.11,7359.37Zm-1.76-5.7c-0.38-1.6-1.82-3.07-2.98-4.15a6.26,6.26,0,0,0-1.89-1.34,0.971,0.971,0,0,0-1.09.1,0.054,0.054,0,0,0,.04.1,2.841,2.841,0,0,1,.95.48,12.611,12.611,0,0,1,4.12,5.04A0.441,0.441,0,0,0,1037.35,7353.67Zm-0.17-3.99a14.493,14.493,0,0,0-5.57-3.67c-0.2-.08-0.28.2-0.14,0.31a41.227,41.227,0,0,1,4.48,3.4,8.566,8.566,0,0,1,1.65,2.14,16.385,16.385,0,0,1,.73,2.45,0.354,0.354,0,0,0,.68,0C1039.47,7352.67,1038.21,7350.86,1037.18,7349.68Zm-1.93-3.58a0.226,0.226,0,0,0-.18.41,7.575,7.575,0,0,1,2.41,1.98,18.342,18.342,0,0,1,1.26,2.35c0.19,0.34.84,0.21,0.79-.21C1039.26,7348.48,1037.18,7346.77,1035.25,7346.1Z" transform="translate(-1024 -7346)"/>
</svg>
